<svg xmlns="http://www.w3.org/2000/svg" xmlns:xlink="http://www.w3.org/1999/xlink" width="3023" zoomAndPan="magnify" viewBox="0 0 2268 1417.499962" height="1889" preserveAspectRatio="xMidYMid meet" version="1.0"><path fill="#213260" d="M 1407.058594 161.609375 L 1201.414062 367.78125 L 1331.0625 510.023438 L 1533.375 307.144531 " fill-opacity="1" fill-rule="nonzero"/><path fill="#3863b8" d="M 938.382812 215.964844 L 774.992188 379.363281 L 907.136719 519.605469 L 1086.203125 340.523438 L 938.382812 215.964844 " fill-opacity="1" fill-rule="nonzero"/><path fill="#50a6e1" d="M 1407.058594 709.144531 L 1063.300781 1052.933594 L 927.382812 917.015625 L 1136.332031 708.046875 L 700.578125 272.273438 L 299.695312 673.175781 C 288.714844 688.832031 286.238281 708.601562 292.28125 726.171875 C 292.28125 726.445312 292.28125 726.445312 292.554688 726.726562 C 295.304688 735.230469 300.242188 743.199219 306.828125 750.0625 L 700.578125 1143.828125 L 791.191406 1053.214844 L 927.101562 1189.128906 L 699.480469 1416.765625 L 59.71875 776.972656 L 59.433594 776.699219 L 59.164062 776.425781 C 48.453125 765.4375 40.765625 752.8125 36.375 739.351562 C 36.375 739.078125 36.101562 738.808594 36.101562 738.523438 C 34.449219 733.589844 33.078125 728.371094 32.253906 723.421875 C 27.859375 694.597656 36.929688 664.121094 59.164062 641.875 L 699.199219 1.804688 L 1407.058594 709.144531 " fill-opacity="1" fill-rule="nonzero"/><path fill="#3863b8" d="M 1861.761719 708.328125 L 1496.855469 1073.253906 L 1349.945312 946.632812 L 1589.382812 708.328125 L 1153.902344 272.828125 L 1062.464844 364.261719 L 926.285156 228.066406 L 1153.902344 0.425781 L 1861.761719 708.328125 " fill-opacity="1" fill-rule="nonzero"/><path fill="#213260" d="M 2236.015625 693.5 C 2235.191406 688.28125 2233.820312 683.0625 2232.167969 678.125 C 2232.167969 677.84375 2231.898438 677.570312 2231.898438 677.296875 C 2227.503906 663.835938 2219.808594 650.929688 2209.109375 640.222656 L 2208.835938 639.949219 C 2208.835938 639.949219 2208.835938 639.949219 2208.554688 639.675781 L 1568.789062 -0.117188 L 1361.210938 207.472656 L 1497.128906 343.394531 L 1567.964844 272.546875 L 1961.714844 666.316406 C 1968.574219 673.175781 1973.238281 681.136719 1975.988281 689.648438 C 1975.988281 689.933594 1975.988281 689.933594 1976.261719 690.203125 C 1982.304688 707.777344 1979.828125 727.542969 1968.847656 743.199219 L 1567.964844 1144.101562 L 1497.128906 1073.253906 L 1132.492188 708.601562 L 1361.210938 479.863281 L 1225.292969 343.941406 L 861.203125 707.503906 L 1225.5625 1071.882812 L 1361.761719 1208.078125 L 1568.789062 1415.125 L 2208.835938 775.046875 C 2231.34375 752.8125 2240.136719 722.324219 2236.015625 693.5 " fill-opacity="1" fill-rule="nonzero"/><path fill="#50a6e1" d="M 927.382812 917.015625 L 790.910156 1053.214844 L 926.828125 1189.128906 L 1063.019531 1052.933594 L 927.382812 917.015625 " fill-opacity="1" fill-rule="nonzero"/><path fill="#3863b8" d="M 1360.664062 937.058594 L 1225.84375 1071.882812 L 1154.175781 1143.546875 L 1063.5625 1052.933594 L 718.421875 708.328125 L 927.382812 499.359375 L 791.191406 363.164062 L 446.042969 708.328125 L 1153.902344 1416.222656 L 1361.761719 1208.351562 L 1496.574219 1073.527344 L 1360.664062 937.058594 " fill-opacity="1" fill-rule="nonzero"/></svg>